<svg width="737" height="262" viewBox="0 0 737 262" fill="none" xmlns="http://www.w3.org/2000/svg">
<path d="M106.062 219.794C98.9315 226.101 91.3392 230.775 83.2848 233.815C75.2304 236.854 67.114 238.285 58.9355 238.105C50.7669 237.766 42.9736 235.883 35.5558 232.459C28.138 229.034 21.463 223.969 15.5307 217.263C9.59834 210.557 5.38496 203.314 2.89052 195.534C0.396085 187.753 -0.483882 179.831 0.250623 171.767C0.994917 163.543 3.36675 155.619 7.36611 147.996C11.3655 140.372 16.9303 133.406 24.0607 127.099C31.276 120.716 38.8684 116.042 46.8378 113.077C54.8922 110.038 63.0037 108.688 71.1724 109.027C79.266 109.282 87.0217 111.121 94.4395 114.546C101.942 117.896 108.66 122.924 114.592 129.63C120.524 136.335 124.733 143.659 127.217 151.599C129.712 159.379 130.592 167.301 129.857 175.365C129.123 183.429 126.756 191.273 122.757 198.897C118.842 206.445 113.277 213.411 106.062 219.794ZM87.5891 198.912C90.9845 195.908 93.5996 192.535 95.4344 188.794C97.3541 184.977 98.3989 181.027 98.5686 176.942C98.7481 172.698 98.0428 168.48 96.4528 164.288C94.9477 160.021 92.5055 155.977 89.1263 152.157C85.6721 148.253 81.9566 145.336 77.98 143.406C74.0132 141.317 69.9501 140.145 65.7906 139.89C61.641 139.475 57.555 139.988 53.5327 141.428C49.5953 142.793 45.9289 144.977 42.5335 147.98C39.1381 150.984 36.4805 154.394 34.5609 158.211C32.726 161.953 31.7189 165.945 31.5394 170.19C31.3696 174.274 32.0373 178.45 33.5425 182.717C35.0574 186.824 37.542 190.83 40.9963 194.735C44.3755 198.555 48.0485 201.509 52.0153 203.599C56.067 205.613 60.1677 206.828 64.3173 207.242C68.4767 207.497 72.5252 206.942 76.4626 205.577C80.4848 204.137 84.1937 201.915 87.5891 198.912Z" fill="white"/>
<path d="M180.164 157.213L141.964 44.5104L193.485 27.0476C203.79 23.5551 213.209 22.2174 221.743 23.0345C230.384 23.8152 237.817 26.6808 244.042 31.6311C250.231 36.4741 254.781 43.189 257.691 51.7758C260.565 60.2553 261.018 68.299 259.049 75.9069C257.044 83.4075 252.849 90.0948 246.463 95.9689C240.149 101.699 231.839 106.311 221.535 109.803L187.724 121.263L197.363 103.098L212.043 146.407L180.164 157.213ZM249.878 133.583L207.948 102.023L241.92 90.5083L284.011 122.014L249.878 133.583ZM198.509 106.479L179.375 96.6297L211.253 85.8246C217.908 83.569 222.355 80.4465 224.592 76.457C226.937 72.4311 227.237 67.8421 225.491 62.69C223.708 57.4306 220.662 53.9158 216.352 52.1455C212.15 50.3389 206.721 50.5634 200.066 52.819L168.188 63.6241L177.39 44.1705L198.509 106.479Z" fill="white"/>
<path d="M299.397 115.86L358.531 0L391.628 1.8628L437.558 123.636L402.593 121.668L367.279 17.0085L380.518 17.7536L333.682 117.79L299.397 115.86ZM329.38 94.3911L339.432 70.0975L397.48 73.3646L404.741 98.6326L329.38 94.3911Z" fill="white"/>
<path d="M498.766 118.531L513.274 83.6409L583.058 56.0057L616.532 71.9108L546.755 99.9261L521.475 109.559L498.766 118.531ZM460.28 129.417L511.351 21.9337L541.447 36.2337L490.375 143.717L460.28 129.417ZM532.447 163.708L518.524 102.698L548.4 90.9202L567.763 180.489L532.447 163.708Z" fill="white"/>
<path d="M659.849 163.919L698.998 202.905L681.245 220.733L642.095 181.747L659.849 163.919ZM628.428 198.846L672.516 242.749L654.163 261.18L586.464 193.765L670.433 109.443L736.566 175.298L718.213 193.729L675.69 151.384L628.428 198.846Z" fill="white"/>
</svg>
